<svg width="800" height="800" viewBox="0 0 800 800" fill="none" xmlns="http://www.w3.org/2000/svg">
<path d="M607.978 591.709C604.693 591.726 601.439 591.086 598.405 589.826C595.371 588.566 592.62 586.712 590.311 584.376C585.63 579.689 583 573.336 583 566.709C583 560.086 585.63 553.732 590.311 549.042L739.311 400.042L590.311 251.043C585.895 246.304 583.491 240.036 583.606 233.559C583.72 227.083 586.344 220.903 590.924 216.323C595.504 211.742 601.684 209.118 608.161 209.004C614.638 208.89 620.904 211.294 625.644 215.71L792.311 382.376C796.994 387.066 799.624 393.419 799.624 400.042C799.624 406.669 796.994 413.022 792.311 417.709L625.644 584.376C623.338 586.712 620.584 588.566 617.551 589.826C614.518 591.086 611.264 591.726 607.978 591.709Z" fill="black"/>
</svg>
