<?xml version="1.0" encoding="iso-8859-1"?>
<!-- Uploaded to: SVG Repo, www.svgrepo.com, Generator: SVG Repo Mixer Tools -->
<!DOCTYPE svg PUBLIC "-//W3C//DTD SVG 1.1//EN" "http://www.w3.org/Graphics/SVG/1.1/DTD/svg11.dtd">
<svg fill="#000000" height="800px" width="800px" version="1.1" id="Capa_1" xmlns="http://www.w3.org/2000/svg" xmlns:xlink="http://www.w3.org/1999/xlink" 
	 viewBox="0 0 262.5 262.5" xml:space="preserve">
<path d="M188.104,66.076v-9.571C188.104,25.348,163.09,0,131.932,0h-0.99C99.785,0,74.104,25.348,74.104,56.505v9.571
	c-30,18.913-49.334,52.152-49.334,89.924c0,58.725,47.859,106.5,106.583,106.5S237.729,214.725,237.729,156
	C237.729,118.228,218.104,84.989,188.104,66.076z M89.104,56.505C89.104,33.619,108.056,15,130.942,15h0.99
	c22.886,0,41.172,18.619,41.172,41.505v1.634c-13-5.555-27.093-8.639-42-8.639s-29,3.084-42,8.639V56.505z"/>
</svg>