<svg width="600" height="3774" viewBox="0 0 600 3774" fill="none" xmlns="http://www.w3.org/2000/svg">
<g clip-path="url(#clip0_105_10)">
<rect x="254" y="1490" width="91" height="338" fill="#D1CFCE"/>
<rect x="254" y="976" width="91" height="338" fill="#D1CFCE"/>
<rect x="254" y="2032" width="91" height="338" fill="#D1CFCE"/>
<rect x="254" y="2573" width="91" height="326" fill="#D1CFCE"/>
<path d="M300 2974C134.325 2974 0 3108.33 0 3274C0 3339.24 21.3875 3399.1 56.9375 3448.13C57.575 3449.3 57.675 3450.61 58.4 3451.74L258.4 3751.74C267.675 3765.65 283.3 3774 300 3774C316.7 3774 332.325 3765.65 341.6 3751.74L541.6 3451.74C542.337 3450.61 542.425 3449.3 543.062 3448.13C578.612 3399.1 600 3339.24 600 3274C600 3108.33 465.675 2974 300 2974ZM300 3374C244.775 3374 200 3329.23 200 3274C200 3218.77 244.775 3174 300 3174C355.225 3174 400 3218.77 400 3274C400 3329.23 355.225 3374 300 3374Z" fill="black"/>
<path d="M300 0C134.325 0 0 134.325 0 300C0 365.237 21.3875 425.1 56.9375 474.125C57.575 475.3 57.675 476.613 58.4 477.738L258.4 777.738C267.675 791.65 283.3 800 300 800C316.7 800 332.325 791.65 341.6 777.738L541.6 477.738C542.337 476.613 542.425 475.3 543.062 474.125C578.612 425.1 600 365.237 600 300C600 134.325 465.675 0 300 0ZM300 400C244.775 400 200 355.225 200 300C200 244.775 244.775 200 300 200C355.225 200 400 244.775 400 300C400 355.225 355.225 400 300 400Z" fill="black"/>
</g>
<defs>
<clipPath id="clip0_105_10">
<rect width="600" height="3774" fill="white"/>
</clipPath>
</defs>
</svg>
