<svg width="800" height="800" viewBox="0 0 800 800" fill="none" xmlns="http://www.w3.org/2000/svg">
<g clip-path="url(#clip0_2_26)">
<mask id="mask0_2_26" style="mask-type:luminance" maskUnits="userSpaceOnUse" x="0" y="0" width="800" height="800">
<path d="M800 0H0V800H800V0Z" fill="white"/>
</mask>
<g mask="url(#mask0_2_26)">
<path d="M395.597 700.574L227.17 790.827L223.255 792.607C194.649 803.426 167.67 801.237 147.119 782.93C127.831 765.748 120.846 741.091 124.842 712.73L152.998 518.331L25.7977 384.654C3.77092 362.225 -4.80126 334.716 2.60949 305.901C10.82 273.976 37.7837 255.592 76.6507 249.438L245.719 223.929L334.245 40.5207C347.995 14.6439 369.465 -0.696683 396.452 0.0243384C422.868 0.730102 443.758 16.9017 460.16 45.7427L545.79 225.186L735.349 251.524C765.471 256.723 787.673 272.41 796.546 298.571C805.398 324.669 796.974 351.08 774.271 378.026L636.66 518.427L667.545 712.682C672.459 746.269 666.579 772.891 644.111 788.717C623.885 802.964 598.576 802.964 569.46 792.946L564.648 790.849L395.597 700.574Z" fill="black"/>
</g>
</g>
<defs>
<clipPath id="clip0_2_26">
<rect width="800" height="800" fill="white"/>
</clipPath>
</defs>
</svg>
