<svg width="800" height="800" viewBox="0 0 800 800" fill="none" xmlns="http://www.w3.org/2000/svg">
<g clip-path="url(#clip0_2_15)">
<mask id="mask0_2_15" style="mask-type:luminance" maskUnits="userSpaceOnUse" x="0" y="0" width="800" height="800">
<path d="M800 0H0V800H800V0Z" fill="white"/>
</mask>
<g mask="url(#mask0_2_15)">
<mask id="mask1_2_15" style="mask-type:luminance" maskUnits="userSpaceOnUse" x="0" y="0" width="800" height="800">
<path d="M800 0H0V800H800V0Z" fill="white"/>
</mask>
<g mask="url(#mask1_2_15)">
<path d="M0 437.292V362.707C0 318.634 33.983 282.19 75.962 282.19C148.326 282.19 177.911 227.947 141.529 161.413C120.74 123.273 133.133 73.691 169.515 51.6545L238.681 9.70039C270.265 -10.2173 311.044 1.64858 329.835 35.1271L334.233 43.1789C370.215 109.712 429.385 109.712 465.767 43.1789L470.165 35.1271C488.956 1.64858 529.735 -10.2173 561.319 9.70039L630.485 51.6545C666.867 73.691 679.26 123.273 658.471 161.413C622.089 227.947 651.674 282.19 724.038 282.19C765.617 282.19 800 318.21 800 362.707V437.292C800 481.365 766.017 517.81 724.038 517.81C651.674 517.81 622.089 572.053 658.471 638.587C679.26 677.151 666.867 726.309 630.485 748.346L561.319 790.3C529.735 810.217 488.956 798.351 470.165 764.873L465.767 756.821C429.785 690.288 370.615 690.288 334.233 756.821L329.835 764.873C311.044 798.351 270.265 810.217 238.681 790.3L169.515 748.346C133.133 726.309 120.74 676.727 141.529 638.587C177.911 572.053 148.326 517.81 75.962 517.81C33.983 517.81 0 481.365 0 437.292Z" fill="black"/>
<path d="M400 508.333C459.83 508.333 508.333 459.83 508.333 400C508.333 340.17 459.83 291.667 400 291.667C340.17 291.667 291.667 340.17 291.667 400C291.667 459.83 340.17 508.333 400 508.333Z" fill="#1E1E1E"/>
</g>
</g>
</g>
<defs>
<clipPath id="clip0_2_15">
<rect width="800" height="800" fill="white"/>
</clipPath>
</defs>
</svg>
