<svg width="800" height="800" viewBox="0 0 800 800" fill="none" xmlns="http://www.w3.org/2000/svg">
<g clip-path="url(#clip0_2_9)">
<mask id="mask0_2_9" style="mask-type:luminance" maskUnits="userSpaceOnUse" x="0" y="0" width="800" height="800">
<path d="M800 0H0V800H800V0Z" fill="white"/>
</mask>
<g mask="url(#mask0_2_9)">
<path d="M757.073 133.486C741.073 123.429 707.512 112.914 661.854 150.4L604.488 197.943C600.195 55.7714 547.512 0 419.512 0H185.366C51.9024 0 0 60.8 0 217.143V582.857C0 688 48.7805 800 185.366 800H419.512C547.512 800 600.195 744.229 604.488 602.057L661.854 649.6C686.049 669.714 707.122 676.114 723.902 676.114C738.341 676.114 749.659 671.086 757.073 666.514C773.073 656.914 800 630.857 800 565.486V234.514C800 169.143 773.073 143.086 757.073 133.486Z" fill="black"/>
</g>
</g>
<defs>
<clipPath id="clip0_2_9">
<rect width="800" height="800" fill="white"/>
</clipPath>
</defs>
</svg>
