<svg width="800" height="800" viewBox="0 0 800 800" fill="none" xmlns="http://www.w3.org/2000/svg">
<g clip-path="url(#clip0_2_38)">
<mask id="mask0_2_38" style="mask-type:luminance" maskUnits="userSpaceOnUse" x="0" y="0" width="800" height="800">
<path d="M800 0H0V800H800V0Z" fill="white"/>
</mask>
<g mask="url(#mask0_2_38)">
<path d="M786.869 248.585L444.613 13.9468C431.294 4.83977 415.812 0 400 0C384.188 0 368.706 4.83977 355.387 13.9468L13.1313 248.585C6.65071 253.336 2.15581 260.597 0.599152 268.828C-0.957501 277.06 0.546416 285.616 4.79219 292.683C9.03797 299.751 15.6919 304.773 23.344 306.687C30.996 308.601 39.0448 307.256 45.7846 302.937L72.9958 284.269V713.554C73.0136 736.475 81.5421 758.452 96.7089 774.66C111.876 790.867 132.441 799.981 153.89 800H283.227C289.357 800 295.236 797.398 299.57 792.766C303.905 788.134 306.34 781.852 306.34 775.301V666.598C306.34 640.053 316.208 614.595 333.772 595.825C351.337 577.055 375.16 566.51 400 566.51C412.3 566.51 424.479 569.099 435.842 574.129C447.206 579.159 457.531 586.531 466.228 595.825C474.925 605.119 481.824 616.153 486.531 628.296C491.238 640.439 493.66 653.454 493.66 666.598V775.301C493.66 778.545 494.258 781.756 495.42 784.753C496.581 787.75 498.284 790.472 500.43 792.766C502.576 795.059 505.124 796.879 507.928 798.12C510.732 799.361 513.738 800 516.773 800H646.11C667.559 799.981 688.124 790.867 703.291 774.66C718.458 758.452 726.986 736.475 727.004 713.554V284.269L754.215 302.937C760.955 307.256 769.004 308.601 776.656 306.687C784.308 304.773 790.962 299.751 795.208 292.683C799.454 285.616 800.957 277.06 799.401 268.828C797.844 260.597 793.349 253.336 786.869 248.585Z" fill="black"/>
</g>
</g>
<defs>
<clipPath id="clip0_2_38">
<rect width="800" height="800" fill="white"/>
</clipPath>
</defs>
</svg>
