<svg width="800" height="800" viewBox="0 0 800 800" fill="none" xmlns="http://www.w3.org/2000/svg">
<path d="M753.319 799.652C748.932 799.678 744.583 798.837 740.522 797.178C736.461 795.519 732.767 793.075 729.652 789.986L586.652 645.319C582.881 638.951 581.336 631.509 582.262 624.166C583.187 616.823 586.53 609.996 591.763 604.763C596.996 599.53 603.823 596.187 611.166 595.262C618.509 594.336 625.951 595.881 632.319 599.652L776.986 744.319C780.11 747.418 782.59 751.105 784.282 755.166C785.974 759.228 786.846 763.585 786.846 767.986C786.846 772.386 785.974 776.743 784.282 780.805C782.59 784.867 780.11 788.554 776.986 791.652C770.432 797.286 761.947 800.155 753.319 799.652Z" fill="#1E1E1E"/>
<path d="M350.5 677C534.687 677 684 527.687 684 343.5C684 159.313 534.687 10 350.5 10C166.313 10 17 159.313 17 343.5C17 527.687 166.313 677 350.5 677Z" fill="black"/>
</svg>
